<svg width="686" height="672" viewBox="0 0 686 672" fill="none" xmlns="http://www.w3.org/2000/svg">
<path d="M627.711 318.402L343 98.9331L58.2891 318.402C43.5941 329.722 22.7003 327.987 10.0874 314.393C-4.21278 298.992 -2.27418 274.664 14.2757 261.716L318.588 23.6388L343 0.950012L367.424 23.6388L671.736 261.716C688.286 274.664 690.225 298.992 675.925 314.393C663.3 327.987 642.406 329.722 627.711 318.402Z" fill="#B02721"/>
<path d="M627.711 318.402L343 98.9331L58.2891 318.402C43.5941 329.722 22.7003 327.987 10.0874 314.393C-4.21278 298.992 -2.27418 274.664 14.2757 261.716L318.588 23.6388L343 0.950012L367.424 23.6388L671.736 261.716C688.286 274.664 690.225 298.992 675.925 314.393C663.3 327.987 642.406 329.722 627.711 318.402Z" fill="#B02721"/>
<path d="M343 98.9329L67.7667 311.09V312.083V671.083H618.233V312.083V311.09L343 98.9329Z" fill="#E0E1E2"/>
<path d="M307.1 300.117H163.5V395.85H307.1V300.117Z" fill="#556080"/>
<path d="M307.1 467.65H163.5V587.317H307.1V467.65Z" fill="#556080"/>
<path d="M522.5 300.117H378.9V395.85H522.5V300.117Z" fill="#556080"/>
<path d="M522.5 467.65H378.9V671.083H522.5V467.65Z" fill="#556080"/>
<path d="M522.5 300.117H378.9V371.917H522.5V300.117Z" fill="#748FAD"/>
<path d="M307.1 300.117H163.5V333.204H307.1V300.117Z" fill="#748FAD"/>
<path d="M247.267 515.517V467.65H223.333V515.517H163.5V539.45H223.333V587.317H247.267V539.45H307.1V515.517H247.267Z" fill="#748FAD"/>
</svg>
