<svg width="485" height="359" viewBox="0 0 485 359" fill="none" xmlns="http://www.w3.org/2000/svg">
<path d="M314.248 149.364L257.374 92.4907L238.169 111.696L295.042 168.57L314.248 149.364Z" fill="#3D2626"/>
<path d="M244.771 124.249L269.888 99.1327C275.192 93.8285 275.192 85.2279 269.888 79.9237C264.584 74.6196 255.983 74.6196 250.679 79.9237L225.562 105.04C220.258 110.344 220.258 118.945 225.562 124.249C230.866 129.553 239.466 129.553 244.771 124.249V124.249Z" fill="#E69F9F"/>
<path d="M0.448444 238.073C6.52577 192.447 2.8217 204.977 19.4215 144.247C24.3093 126.364 30.958 102.13 40.1359 68.1864C51.0152 27.9471 87.523 0 129.206 0H242.995L270.677 5.54984V44.66C267.847 44.1452 264.941 43.8761 261.985 43.8761H196.893C188.815 43.8761 182.267 50.4244 182.267 58.5015V129.621C182.267 137.698 188.815 144.246 196.893 144.246H270.676V251.068L212.248 294.944H50.1932C19.8427 294.945 -3.56281 268.186 0.448444 238.073V238.073ZM84.127 144.247H123.766C131.843 144.247 138.391 137.699 138.391 129.622V53.0618C138.391 47.9888 134.279 43.8761 129.206 43.8761H129.205C107.393 43.8761 88.1841 58.5814 82.4909 79.638L70.0087 125.804C67.4951 135.101 74.4967 144.247 84.127 144.247V144.247Z" fill="#B02721"/>
<path d="M270.676 144.247H271.579H326.169L308.7 79.638C303.765 61.3875 288.776 47.9673 270.675 44.6688V40.2578C270.675 22.4022 259.667 6.39324 242.994 0.000976562H261.985C303.668 0.000976562 340.175 27.9481 351.056 68.1874L371.621 144.247H408.202C433.354 144.247 454.623 162.885 457.947 187.84L464.638 238.074C468.649 268.187 445.245 294.945 414.893 294.945H212.249C246.263 258.7 270.676 199.483 270.676 144.247V144.247Z" fill="#B02721"/>
<path d="M460.212 275.445H395.71V324.197H460.212C473.674 324.197 484.587 313.283 484.587 299.821C484.587 286.359 473.674 275.445 460.212 275.445Z" fill="#7E5A5A"/>
<path d="M24.3756 275.445H88.8773V324.197H24.3756C10.9134 324.197 -5.23566e-05 313.283 -5.23566e-05 299.821C-5.23566e-05 286.359 10.9134 275.445 24.3756 275.445Z" fill="#7E5A5A"/>
<path d="M345.23 236.137H368.996L432.373 294.889L368.996 353.641H345.23C322.008 344.237 305.62 321.484 305.62 294.889C305.62 268.295 322.008 245.541 345.23 236.137Z" fill="#E69F9F"/>
<path d="M384.84 294.889C384.84 321.484 368.452 344.238 345.23 353.641C352.571 356.614 360.588 358.266 368.996 358.266C403.998 358.266 432.373 329.892 432.373 294.889C432.373 259.887 403.998 231.513 368.996 231.513C360.588 231.513 352.571 233.164 345.23 236.137C368.452 245.541 384.84 268.296 384.84 294.889V294.889Z" fill="#3D2626"/>
<path d="M353.698 290.794C355.958 282.358 364.659 277.335 373.095 279.595C381.531 281.855 386.554 290.556 384.294 298.992C382.034 307.429 373.333 312.452 364.897 310.191C356.461 307.931 351.438 299.229 353.698 290.794V290.794Z" fill="#C7EBFF"/>
<path d="M91.8337 236.137H115.6L178.977 294.889L115.6 353.641H91.8337C68.6116 344.237 52.2234 321.484 52.2234 294.889C52.2234 268.295 68.6116 245.541 91.8337 236.137Z" fill="#E69F9F"/>
<path d="M131.444 294.889C131.444 321.484 115.056 344.238 91.8337 353.641C99.1746 356.614 107.192 358.266 115.6 358.266C150.601 358.266 178.977 329.892 178.977 294.889C178.977 259.887 150.601 231.513 115.6 231.513C107.192 231.513 99.1746 233.164 91.8337 236.137C115.056 245.541 131.444 268.296 131.444 294.889Z" fill="#3D2626"/>
<path d="M100.302 290.794C102.562 282.358 111.263 277.335 119.699 279.595C128.135 281.855 133.158 290.556 130.898 298.992C128.638 307.429 119.937 312.452 111.501 310.191C103.065 307.931 98.0417 299.229 100.302 290.794Z" fill="#C7EBFF"/>
</svg>
