<svg width="493" height="365" viewBox="0 0 493 365" fill="none" xmlns="http://www.w3.org/2000/svg">
<path d="M319.704 151.957L261.843 94.0965L242.304 113.636L300.164 171.497L319.704 151.957Z" fill="#754100"/>
<path d="M249.021 126.406L274.573 100.854C279.97 95.4576 279.97 86.7075 274.573 81.3113C269.177 75.9151 260.427 75.9151 255.031 81.3113L229.478 106.864C224.082 112.26 224.082 121.01 229.478 126.406C234.874 131.803 243.623 131.803 249.021 126.406V126.406Z" fill="#F2CFCF"/>
<path d="M0.456293 242.206C6.63913 195.788 2.87075 208.536 19.7587 146.751C24.7314 128.558 31.4955 103.903 40.8327 69.3701C51.9009 28.4323 89.0426 0 131.449 0H247.213L275.376 5.64619V45.4354C272.497 44.9116 269.541 44.6378 266.533 44.6378H200.311C192.093 44.6378 185.432 51.2998 185.432 59.5171V131.871C185.432 140.088 192.093 146.75 200.311 146.75H275.375V255.427L215.933 300.064H51.0647C20.1872 300.065 -3.6246 272.842 0.456293 242.206V242.206ZM85.5876 146.751H125.914C134.132 146.751 140.794 140.089 140.794 131.872V53.983C140.794 48.8219 136.611 44.6378 131.449 44.6378H131.449C109.258 44.6378 89.7151 59.5984 83.9231 81.0206L71.2241 127.989C68.6669 137.447 75.7901 146.751 85.5876 146.751V146.751Z" fill="#E69F9F"/>
<path d="M275.375 146.751H276.294H331.832L314.059 81.0206C309.039 62.4533 293.789 48.8 275.374 45.4443V40.9567C275.374 22.7911 264.175 6.50421 247.212 0.000976562H266.534C308.94 0.000976562 346.081 28.4333 357.15 69.3711L378.073 146.751H415.289C440.878 146.751 462.515 165.712 465.897 191.101L472.705 242.207C476.786 272.843 452.975 300.065 422.096 300.065H215.934C250.538 263.192 275.375 202.946 275.375 146.751V146.751Z" fill="#E69F9F"/>
<path d="M468.201 280.227H402.58V329.825H468.201C481.897 329.825 493 318.722 493 305.026C493 291.33 481.897 280.227 468.201 280.227Z" fill="#7E5A5A"/>
<path d="M24.7988 280.227H90.4204V329.825H24.7988C11.103 329.825 5.27615e-05 318.722 5.27615e-05 305.026C5.27615e-05 291.33 11.103 280.227 24.7988 280.227Z" fill="#7E5A5A"/>
<path d="M351.223 240.237H375.402L439.879 300.009L375.402 359.781H351.223C327.598 350.213 310.925 327.065 310.925 300.009C310.925 272.952 327.598 249.804 351.223 240.237Z" fill="#F2CFCF"/>
<path d="M391.521 300.009C391.521 327.065 374.849 350.214 351.223 359.781C358.692 362.805 366.849 364.486 375.402 364.486C411.011 364.486 439.879 335.619 439.879 300.009C439.879 264.399 411.012 235.532 375.402 235.532C366.849 235.532 358.692 237.212 351.223 240.237C374.849 249.804 391.521 272.953 391.521 300.009V300.009Z" fill="#754100"/>
<path d="M359.838 295.843C362.138 287.26 370.99 282.15 379.572 284.449C388.155 286.748 393.265 295.601 390.966 304.183C388.667 312.766 379.814 317.876 371.232 315.576C362.65 313.277 357.539 304.424 359.838 295.843V295.843Z" fill="#7E5A5A"/>
<path d="M93.4281 240.237H117.607L182.084 300.009L117.607 359.781H93.4281C69.8027 350.213 53.13 327.065 53.13 300.009C53.13 272.952 69.8027 249.804 93.4281 240.237Z" fill="#F2CFCF"/>
<path d="M133.726 300.009C133.726 327.065 117.053 350.214 93.4281 359.781C100.896 362.805 109.053 364.486 117.607 364.486C153.216 364.486 182.084 335.619 182.084 300.009C182.084 264.399 153.216 235.532 117.607 235.532C109.053 235.532 100.896 237.212 93.4281 240.237C117.053 249.804 133.726 272.953 133.726 300.009Z" fill="#754100"/>
<path d="M102.043 295.843C104.342 287.26 113.195 282.15 121.777 284.449C130.359 286.748 135.47 295.601 133.171 304.183C130.871 312.766 122.019 317.876 113.437 315.576C104.854 313.277 99.7438 304.424 102.043 295.843Z" fill="#7E5A5A"/>
</svg>
