<svg width="1102" height="582" viewBox="0 0 1102 582" fill="none" xmlns="http://www.w3.org/2000/svg">
<path d="M0.342087 551.5H519.837C575.284 551.5 620.232 506.552 620.232 451.105V451.105C620.232 395.658 665.181 350.71 720.627 350.71H965.383C1023.71 350.71 1071 303.423 1071 245.092V245.092C1071 186.762 1023.71 139.475 965.383 139.475H291.926C233.595 139.475 186.309 186.762 186.309 245.092V245.092C186.309 303.423 233.596 350.71 291.926 350.71H333.028C414.058 350.71 479.746 285.021 479.746 203.991V0" stroke="white" stroke-width="60.6414"/>
<path d="M0.342087 551.5H519.837C575.284 551.5 620.232 506.552 620.232 451.105V451.105C620.232 395.658 665.181 350.71 720.627 350.71H965.383C1023.71 350.71 1071 303.423 1071 245.092V245.092C1071 186.762 1023.71 139.475 965.383 139.475H291.926C233.595 139.475 186.309 186.762 186.309 245.092V245.092C186.309 303.423 233.596 350.71 291.926 350.71H333.028C414.058 350.71 479.746 285.021 479.746 203.991V0" stroke="#333333" stroke-width="47.1655"/>
<path d="M0.342087 551.5H519.837C575.284 551.5 620.232 506.552 620.232 451.105V451.105C620.232 395.658 665.181 350.71 720.627 350.71H965.383C1023.71 350.71 1071 303.423 1071 245.092V245.092C1071 186.762 1023.71 139.475 965.383 139.475H291.926C233.595 139.475 186.309 186.762 186.309 245.092V245.092C186.309 303.423 233.596 350.71 291.926 350.71H333.028C414.058 350.71 479.746 285.021 479.746 203.991V0" stroke="white" stroke-width="3.36897" stroke-dasharray="10.11 6.74"/>
</svg>
